<mxfile host="app.diagrams.net" modified="2024-03-30T07:02:33.412Z" agent="Mozilla/5.0 (X11; Linux x86_64) AppleWebKit/537.36 (KHTML, like Gecko) Chrome/120.0.0.0 Safari/537.36" version="24.2.1" etag="xTX_L6eITl8zYOtCrPm2" type="github">
  <diagram name="Page-1" id="isg19iHwhOOY1OHEjjz5">
    <mxGraphModel>
      <root>
        <mxCell id="0" />
        <mxCell id="1" parent="0" />
      </root>
    </mxGraphModel>
  </diagram>
</mxfile>
